<?xml version="1.0" standalone="no"?><!DOCTYPE svg PUBLIC "-//W3C//DTD SVG 1.1//EN" "http://www.w3.org/Graphics/SVG/1.1/DTD/svg11.dtd"><svg t="1728118643931" class="icon" viewBox="0 0 1024 1024" version="1.1" xmlns="http://www.w3.org/2000/svg" p-id="3399" xmlns:xlink="http://www.w3.org/1999/xlink" width="200" height="200"><path d="M512 512m-512 0a512 512 0 1 0 1024 0 512 512 0 1 0-1024 0Z" fill="#027DFF" p-id="3400"></path><path d="M284.416 739.52c-41.856 0-75.84-33.92-75.84-75.84v-19.008a37.952 37.952 0 0 1-37.888-37.888V530.944a37.952 37.952 0 0 1 46.336-36.992A191.552 191.552 0 0 1 284.672 398.08a187.904 187.904 0 0 1 113.536-37.888h92.416v-26.432H398.016L552.384 151.68v121.408h92.544L571.072 360.256h54.72c83.136 0.128 156.544 54.272 181.184 133.696a37.952 37.952 0 0 1 46.336 36.992V606.72a37.952 37.952 0 0 1-37.888 37.888v19.008c0 41.856-33.92 75.84-75.84 75.84H284.416z m208.64-56.896h75.84c20.864 0 37.76-37.568 37.888-37.952h-151.68c0 20.992 16.96 37.952 37.952 37.952zM625.792 512v75.904c0 10.432 8.448 18.944 18.944 18.944h18.944a18.944 18.944 0 0 0 19.008-18.944V511.936a18.944 18.944 0 0 0-19.008-18.944h-18.944A18.944 18.944 0 0 0 625.792 512zM360.32 512v75.904c0 10.432 8.448 18.944 18.944 18.944h18.944a18.944 18.944 0 0 0 19.008-18.944V511.936a18.944 18.944 0 0 0-19.008-18.944h-18.944A18.944 18.944 0 0 0 360.32 512z" fill="#FFFFFF" p-id="3401"></path></svg>