<?xml version="1.0" encoding="UTF-8"?>
<svg width="24px" height="24px" viewBox="0 0 24 24" version="1.1" xmlns="http://www.w3.org/2000/svg" xmlns:xlink="http://www.w3.org/1999/xlink">
    <title>ic_01_offmdpi</title>
    <g id="ic_01_off" stroke="none" stroke-width="1" fill="none" fill-rule="evenodd">
        <rect id="矩形" x="0" y="0" width="24" height="24"></rect>
        <path d="M15.4583333,1 C16.7700096,1 17.8333333,2.0553288 17.8333333,3.35714286 L17.8333333,20.6428571 C17.8333333,21.9446712 16.7700096,23 15.4583333,23 L4.375,23 C3.06332372,23 2,21.9446712 2,20.6428571 L2,3.35714286 C2,2.0553288 3.06332372,1 4.375,1 L15.4583333,1 Z" id="形状" fill="#999999" style="mix-blend-mode: multiply;"></path>
        <rect id="矩形" fill="#BFBFBF" x="14.875" y="12.7857143" width="7.125" height="10.2142857" rx="2.35714286"></rect>
        <path d="M14.6666667,5.77640641 C14.6666667,6.17703976 14.3394287,6.50184399 13.9357603,6.50184399 C13.7697923,6.50184399 13.6087659,6.44575696 13.4791667,6.34285714 L12.5389418,5.59633273 C12.3943761,5.48154973 12.1889573,5.48154973 12.0443916,5.59633273 L11.1041667,6.34285714 C10.7889545,6.59313079 10.3290007,6.54240909 10.076831,6.22956696 C9.97315169,6.10094216 9.91666667,5.94112654 9.91666667,5.77640641 L9.91666667,1 L14.6666667,1 Z" id="形状结合" fill-opacity="0.401735959" fill="#FFFFFF"></path>
    </g>
</svg>